<svg fill="none" height="24" viewBox="0 0 24 24" width="24" xmlns="http://www.w3.org/2000/svg"><path d="m12.4998 21c0 .276-.224.5-.5.5h-3.99998c-2.481 0-4.5-2.019-4.5-4.5v-10c0-2.481 2.019-4.5 4.5-4.5h3.99998c.276 0 .5.224.5.5s-.224.5-.5.5h-3.99998c-1.93 0-3.5 1.57-3.5 3.5v10c0 1.93 1.57 3.5 3.5 3.5h3.99998c.276 0 .5.224.5.5zm7.854-9.354-4-4c-.195-.195-.512-.195-.707 0s-.195.512 0 .707l3.146 3.146h-8.79298c-.276 0-.5.224-.5.5s.224.5.5.5h8.79298l-3.146 3.146c-.195.195-.195.512 0 .707.098.098.226.146.354.146s.256-.049.354-.146l4-4c.194-.194.194-.51-.001-.706z" fill="#41416e"/></svg>