<svg clip-rule="evenodd" fill-rule="evenodd" height="2048" image-rendering="optimizeQuality" shape-rendering="geometricPrecision" text-rendering="geometricPrecision" viewBox="0 0 2048 2048" width="2048" xmlns="http://www.w3.org/2000/svg"><path d="m0 0h2048v2048h-2048z" fill="none"/><path d="m255.996 255.996h1536v1536h-1536z" fill="none"/><g fill="#212121" fill-rule="nonzero"><path d="m1146.01 939.783c0-4.05.611811-18.0189 1.19055-31.291.422835-9.67087.826772-18.8917.826772-24.1134 0-33.5209-13.6193-63.9048-35.6174-85.9052-21.9969-22.0004-52.3748-35.6209-85.891-35.6209h-6.49134c-33.5244 0-63.9048 13.6193-85.904 35.6197-22.0004 22.0004-35.6197 52.3855-35.6197 85.9064 0 5.33504.411024 14.6693.838583 24.4063.579922 13.1799 1.18701 26.9575 1.18701 30.9981v25.9181l-26.0587 1.42677c-5.69056.311811-8.59843 2.35512-9.53268 5.04567-.900001 2.59488-1.15512 6.02126-.87756 9.88583.324803 4.513 1.44567 9.21261 3.20197 13.6925 3.65788 9.33662 8.90552 17.041 13.3323 17.041h20.1591l6.00473 19.4091c7.05237 22.7906 16.0819 41.4036 26.0303 56.6091 9.69095 14.8122 20.1248 26.1921 30.3473 34.95 10.787 9.22087 21.2988 15.6047 30.5138 20.0126 16.7823 8.02678 26.4792 9.25867 26.7768 9.25867h6.09213c.214961 0 9.63072-1.17165 26.4827-9.2067 9.29174-4.42914 19.7469-10.728 30.1925-19.65l.106299-.10748c11.1484-9.47363 22.4658-22.0205 32.7803-38.6008 9.03898-14.5311 17.2642-32.1118 23.8984-53.3717l6.02363-19.3028h20.1402c4.47284 0 9.70749-7.63229 13.337-16.8969 1.74803-4.46457 2.86418-9.16182 3.18425-13.6854.269292-3.79843.00708662-7.19174-.897638-9.79725v-.10748c-.959056-2.76378-3.92126-4.8626-9.69804-5.17796l-26.0587-1.42441v-25.9205zm164.314 413.659c-21.2221-28.0595-109.215-58.2461-162.698-76.5922-2.89843-.993308-5.67874-1.94646-8.63977-2.97284-36.5221 23.941-74.1272 37.0819-112.994 37.7528-39.2374.679134-78.7099-11.4154-118.455-37.9925-2.59488.863386-5.30197 1.7563-8.17796 2.70591-49.7552 16.4102-150.183 49.5378-162.049 74.7473l-.0259843-.0129921c-6.88938 17.0764-18.7559 50.3894-27.567 80.5961-5.81103 19.9169-10.1102 37.6796-10.1102 46.1492 0 8.35276 3.37323 15.9024 8.82875 21.3567 5.45433 5.45552 13.0039 8.82875 21.3567 8.82875h588.166c8.35631 0 15.9071-3.37323 21.3626-8.82757 4.46575-4.46575 7.53544-10.3358 8.50394-16.8992-7.89568-20.5453-13.4209-43.5721-18.8622-66.2493-5.49095-22.8862-10.8886-45.378-18.639-62.5902zm-144.898-128.492c61.0158 20.9291 162.158 55.6217 191.506 99.632l2.0374 3.5374c10.415 22.0618 16.741 48.4193 23.1803 75.2599 5.3126 22.1398 10.715 44.6528 18.7595 63.8268l2.14488 10.6169c0 23.5087-9.51851 44.7803-24.9154 60.176-15.398 15.3957-36.6709 24.913-60.1808 24.913h-588.166c-23.5075 0-44.7792-9.51733-60.1748-24.9142-15.3969-15.3969-24.9142-36.6674-24.9142-60.1748 0-13.7244 5.30315-36.8067 12.4701-61.376 9.49961-32.5583 22.6795-69.2906 30.0579-87.339l.536221-1.39488c21.9284-46.5815 137.283-84.6355 194.433-103.486 9.19489-3.03307 16.8945-5.57363 20.5335-6.86457l13.6677-4.84843 11.7473 8.70946c33.6331 24.9331 65.902 36.254 96.9863 35.7177 31.1303-.537402 62.3587-13.0417 93.6757-35.7331l11.6646-8.45198 13.5354 4.80591c3.43111 1.21772 12.0095 4.16103 21.4146 7.3878zm36.4642-314.098-.33189 7.6819c16.1209 7.22953 26.3858 20.1851 31.8591 35.876l.0354331-.011811c3.4937 10.0559 4.66536 20.9032 3.9 31.6736-.712205 10.0429-3.10158 20.25-6.8315 29.7709-8.33032 21.2634-23.7969 39.7229-43.3394 47.68-7.13623 19.4728-15.4973 36.3236-24.5622 50.8985-13.5709 21.815-28.7823 38.5949-43.9311 51.4689l-.00826772-.0106299c-14.7992 12.6213-29.315 21.4016-42.0874 27.489-26.6681 12.7146-49.487 14.5677-50.0741 14.5677h-6.09213c-.778347 0-23.4768-1.97244-50.3681-14.8358-13.0772-6.25394-27.8008-15.1465-42.5221-27.7323-13.9347-11.9386-27.9614-27.1477-40.6429-46.5319-10.128-15.4831-19.4858-33.763-27.3508-55.3489-19.5024-7.99489-34.9819-26.5004-43.3217-47.7886-3.72874-9.51615-6.12638-19.7268-6.84922-29.778-.77126-10.6973.394488-21.5032 3.87992-31.5461 5.43898-15.6697 15.6579-28.6004 31.7233-35.8276l-.32126-7.40316c-.538583-12.2303-1.05354-23.9516-1.05354-26.765 0-48.6756 19.7693-92.7887 51.7052-124.725 31.9347-31.9359 76.043-51.7052 124.722-51.7052h6.49134c48.6733 0 92.7768 19.7705 124.709 51.7063 31.9335 31.9382 51.7028 76.0477 51.7028 124.723 0 2.67992-.507874 14.2843-1.04055 26.4732z"/><path d="m1535.07 716.918c0-4.05.611811-18.0189 1.19055-31.291.422835-9.67087.826772-18.8917.826772-24.1134 0-33.5209-13.6193-63.9048-35.6174-85.9052-21.9969-22.0004-52.3748-35.6209-85.891-35.6209h-6.49134c-33.5244 0-63.9048 13.6193-85.904 35.6197-22.0004 22.0004-35.6197 52.3855-35.6197 85.9064 0 5.33504.411024 14.6693.838583 24.4063.579922 13.1799 1.18701 26.9575 1.18701 30.9981v25.9181l-26.0587 1.42677c-5.69056.311811-8.59843 2.35512-9.53268 5.04567-.900001 2.59488-1.15512 6.02126-.87756 9.88583.324803 4.513 1.44567 9.21261 3.20197 13.6925 3.65788 9.33662 8.90552 17.041 13.3323 17.041h20.1591l6.00473 19.4091c7.05237 22.7906 16.0819 41.4036 26.0303 56.6091 9.69095 14.8122 20.1248 26.1921 30.3473 34.95 10.787 9.22087 21.2988 15.6047 30.5138 20.0126 16.7823 8.02678 26.4792 9.25867 26.7768 9.25867h6.09213c.214961 0 9.63072-1.17165 26.4827-9.2067 9.29174-4.42914 19.7469-10.728 30.1925-19.65l.106299-.10748c11.1484-9.47363 22.4658-22.0205 32.7803-38.6008 9.03898-14.5311 17.2642-32.1118 23.8984-53.3717l6.02363-19.3028h20.1402c4.47284 0 9.70749-7.63229 13.337-16.8969 1.74803-4.46457 2.86418-9.16182 3.18425-13.6854.269292-3.79843.00708662-7.19174-.897638-9.79725v-.10748c-.959056-2.76378-3.92126-4.8626-9.69804-5.17796l-26.0587-1.42441v-25.9205zm164.314 413.659c-21.2221-28.0595-109.215-58.2461-162.698-76.5922-2.89843-.993308-5.67874-1.94646-8.63977-2.97284-36.5221 23.941-74.1272 37.0819-112.994 37.7528-39.2374.679134-78.7099-11.4154-118.455-37.9925-2.59488.863386-5.30197 1.7563-8.17796 2.70591-10.5307 3.47362-23.3339 7.69607-37.0831 12.4335-2.52992-2.62559-5.21811-5.19685-8.05158-7.7126 7.05591-9.40631 12.7831-19.839 17.0315-30.6839 3.14055-8.01615 5.55119-16.3866 7.12441-24.8918l3.82087-1.26142c9.19489-3.03307 16.8945-5.57363 20.5335-6.86457l13.6677-4.84843 11.7473 8.70946c33.6331 24.9331 65.902 36.254 96.9863 35.7177 31.1303-.537402 62.3587-13.0417 93.6757-35.7331l11.6646-8.45198 13.5354 4.80591c3.43111 1.21772 12.0095 4.16103 21.4146 7.3878 61.0158 20.9291 162.158 55.6217 191.506 99.632l2.0374 3.5374c10.415 22.0618 16.741 48.4193 23.1803 75.2599 5.3126 22.1398 10.715 44.6528 18.7595 63.8268l2.14488 10.6169c0 23.5087-9.51851 44.7803-24.9154 60.176-15.398 15.3957-36.6709 24.913-60.1808 24.913h-308.003c-3.24922-9.62953-7.19056-18.9992-12.3165-27.8988l-2.0374-3.5374c-4.77638-8.29253-11.185-16.1043-18.8351-23.4673h341.192c8.35631 0 15.9071-3.37323 21.3626-8.82757 4.46575-4.46575 7.53544-10.3358 8.50394-16.8992-7.89568-20.5453-13.4209-43.5721-18.8622-66.2493-5.49095-22.8862-10.8886-45.378-18.639-62.5902zm-108.434-442.59-.33189 7.6819c16.1209 7.22953 26.3858 20.1851 31.8591 35.876l.0354331-.011811c3.4937 10.0559 4.66536 20.9032 3.9 31.6736-.712205 10.0429-3.10158 20.25-6.8315 29.7709-8.33032 21.2634-23.7969 39.7229-43.3394 47.68-7.13623 19.4728-15.4973 36.3236-24.5622 50.8985-13.5709 21.815-28.7823 38.5949-43.9311 51.4689l-.00826772-.0106299c-14.7992 12.6213-29.315 21.4016-42.0874 27.489-26.6681 12.7146-49.487 14.5677-50.0741 14.5677h-6.09213c-.778347 0-23.4768-1.97244-50.3681-14.8358-13.0772-6.25394-27.8008-15.1465-42.5221-27.7323-13.9347-11.9386-27.9614-27.1477-40.6429-46.5319-10.128-15.4831-19.4858-33.763-27.3508-55.3489-8.1378-3.33662-15.5752-8.50394-22.0855-14.9386-6.1004-20.8016-15.4323-40.5437-27.6992-58.5355-.158268-1.36536-.288189-2.73071-.386221-4.09252-.77126-10.6973.394488-21.5032 3.87992-31.5461 5.43898-15.6697 15.6579-28.6004 31.7233-35.8276l-.32126-7.40316c-.538583-12.2303-1.05354-23.9516-1.05354-26.765 0-48.6756 19.7693-92.7887 51.7052-124.725 31.9347-31.9359 76.043-51.7052 124.722-51.7052h6.49134c48.6733 0 92.7768 19.7705 124.709 51.7063 31.9335 31.9382 51.7028 76.0477 51.7028 124.723 0 2.67992-.507874 14.2843-1.04055 26.4732z"/><path d="m512.924 716.918c0-4.05-.611811-18.0189-1.19055-31.291-.422835-9.67087-.826772-18.8917-.826772-24.1134 0-33.5209 13.6193-63.9048 35.6174-85.9052 21.9969-22.0004 52.3748-35.6209 85.891-35.6209h6.49134c33.5244 0 63.9048 13.6193 85.904 35.6197 22.0004 22.0004 35.6197 52.3855 35.6197 85.9064 0 5.33504-.411024 14.6693-.838583 24.4063-.579922 13.1799-1.18701 26.9575-1.18701 30.9981v25.9181l26.0587 1.42677c5.69056.311811 8.59843 2.35512 9.53268 5.04567.900001 2.59488 1.15512 6.02126.87756 9.88583-.324803 4.513-1.44567 9.21261-3.20197 13.6925-3.65788 9.33662-8.90552 17.041-13.3323 17.041h-20.1591l-6.00473 19.4091c-7.05237 22.7906-16.0819 41.4036-26.0303 56.6091-9.69095 14.8122-20.1248 26.1921-30.3473 34.95-10.787 9.22087-21.2988 15.6047-30.5138 20.0126-16.7823 8.02678-26.4792 9.25867-26.7768 9.25867h-6.09213c-.214961 0-9.63072-1.17165-26.4827-9.2067-9.29174-4.42914-19.7469-10.728-30.1925-19.65l-.106299-.10748c-11.1484-9.47363-22.4658-22.0205-32.7803-38.6008-9.03898-14.5311-17.2642-32.1118-23.8984-53.3717l-6.02363-19.3028h-20.1402c-4.47284 0-9.70749-7.63229-13.337-16.8969-1.74803-4.46457-2.86418-9.16182-3.18425-13.6854-.269292-3.79843-.00708662-7.19174.897638-9.79725v-.10748c.959056-2.76378 3.92126-4.8626 9.69804-5.17796l26.0587-1.42441v-25.9205zm-164.314 413.659c21.2221-28.0595 109.215-58.2461 162.698-76.5922 2.89843-.993308 5.67874-1.94646 8.63977-2.97284 36.5221 23.941 74.1272 37.0819 112.994 37.7528 39.2374.679134 78.7099-11.4154 118.455-37.9925 2.59488.863386 5.30197 1.7563 8.17796 2.70591 10.5307 3.47362 23.3339 7.69607 37.0831 12.4335 2.32205-2.41181 4.77992-4.7752 7.35945-7.09371-7.31103-9.61064-13.2284-20.3173-17.589-31.4469-3.17599-8.10591-5.60788-16.5756-7.18465-25.1811l-2.51103-.827953c-9.19489-3.03307-16.8945-5.57363-20.5335-6.86457l-13.6677-4.84843-11.7473 8.70946c-33.6331 24.9331-65.902 36.254-96.9863 35.7177-31.1303-.537402-62.3587-13.0417-93.6757-35.7331l-11.6646-8.45198-13.5354 4.80591c-3.43111 1.21772-12.0095 4.16103-21.4146 7.3878-61.0158 20.9291-162.158 55.6217-191.506 99.632l-2.0374 3.5374c-10.415 22.0618-16.741 48.4193-23.1803 75.2599-5.3126 22.1398-10.715 44.6528-18.7595 63.8268l-2.14488 10.6169c0 23.5087 9.51851 44.7803 24.9154 60.176 15.398 15.3957 36.6709 24.913 60.1808 24.913h307.948c2.76614-7.51654 5.58662-14.9953 8.44135-22.4221l.536221-1.39488c4.28622-11.1496 11.6587-21.4949 21.2351-31.0866h-338.16c-8.35631 0-15.9071-3.37323-21.3626-8.82757-4.46575-4.46575-7.53544-10.3358-8.50394-16.8992 7.89568-20.5453 13.4209-43.5721 18.8622-66.2493 5.49095-22.8862 10.8886-45.378 18.639-62.5902zm108.434-442.59.33189 7.6819c-16.1209 7.22953-26.3858 20.1851-31.8591 35.876l-.0354331-.011811c-3.4937 10.0559-4.66536 20.9032-3.9 31.6736.712205 10.0429 3.10158 20.25 6.8315 29.7709 8.33032 21.2634 23.7969 39.7229 43.3394 47.68 7.13623 19.4728 15.4973 36.3236 24.5622 50.8985 13.5709 21.815 28.7823 38.5949 43.9311 51.4689l.00826772-.0106299c14.7992 12.6213 29.315 21.4016 42.0874 27.489 26.6681 12.7146 49.487 14.5677 50.0741 14.5677h6.09213c.778347 0 23.4768-1.97244 50.3681-14.8358 13.0772-6.25394 27.8008-15.1465 42.5221-27.7323 13.9347-11.9386 27.9614-27.1477 40.6429-46.5319 10.128-15.4831 19.4858-33.763 27.3508-55.3489 7.30985-2.99646 14.0551-7.47048 20.0705-13.0134 6.3567-22.4729 16.4681-43.7433 29.9705-62.9434.0484252-.536221.090945-1.07362.129921-1.60984.77126-10.6973-.394488-21.5032-3.87992-31.5461-5.43898-15.6697-15.6579-28.6004-31.7233-35.8276l.32126-7.40316c.538583-12.2303 1.05354-23.9516 1.05354-26.765 0-48.6756-19.7693-92.7887-51.7052-124.725-31.9347-31.9359-76.043-51.7052-124.722-51.7052h-6.49134c-48.6733 0-92.7768 19.7705-124.709 51.7063-31.9335 31.9382-51.7028 76.0477-51.7028 124.723 0 2.67992.507874 14.2843 1.04055 26.4732z"/></g></svg>